<svg preserveAspectRatio="none" overflow="visible" style="display: block;" width="82" height="41" viewBox="0 0 82 41" fill="none" xmlns="http://www.w3.org/2000/svg">
<g id="Gu&#225;&#187;&#145;c m&#225;&#187;&#153;c / chunky rounded wood + 3 silver nails" clip-path="url(#clip0_0_4)">
<path id="Vector" d="M8 0H48V8C48 10 50.3333 11.6667 55 13L71 15C75 15.6667 77 17.3333 77 20H13C9 20 7 18 7 14L8 0Z" fill="#FDBA90"/>
<path id="Vector_2" d="M10 18H72C78 18 82 21 82 26C82 31 78 34 72 34H10C4 34 0 31 0 26C0 21 4 18 10 18Z" fill="#D5AA76"/>
<path id="Vector_3" d="M5.80294 25.7288C5.80294 24.3954 7.4696 23.7288 10.8029 23.7288H26.8029C29.4696 23.7288 30.8029 25.0621 30.8029 27.7288V33.7288C30.8029 36.3954 29.1363 37.7288 25.8029 37.7288H10.8029C7.4696 37.7288 5.80294 36.0621 5.80294 32.7288V25.7288Z" fill="#D5AA76"/>
<path id="Vector_4" d="M31 5C31 3 32.3333 1.66667 35 1C39 -0.333333 43 -0.333333 47 1C49 1.66667 50.3333 3.33333 51 6L58 24C58.6667 26 58 27 56 27H36C34 27 33 26 33 24L31 5Z" fill="#111111"/>
<path id="Vector_5" d="M38.5 25C39.0523 25 39.5 24.5523 39.5 24C39.5 23.4477 39.0523 23 38.5 23C37.9477 23 37.5 23.4477 37.5 24C37.5 24.5523 37.9477 25 38.5 25Z" fill="#C0C0C0"/>
<path id="Vector_6" d="M46 25C46.5523 25 47 24.5523 47 24C47 23.4477 46.5523 23 46 23C45.4477 23 45 23.4477 45 24C45 24.5523 45.4477 25 46 25Z" fill="#C0C0C0"/>
<path id="Vector_7" d="M53.5 25C54.0523 25 54.5 24.5523 54.5 24C54.5 23.4477 54.0523 23 53.5 23C52.9477 23 52.5 23.4477 52.5 24C52.5 24.5523 52.9477 25 53.5 25Z" fill="#C0C0C0"/>
</g>
<defs>
<clipPath id="clip0_0_4">
<rect width="82" height="41" fill="white"/>
</clipPath>
</defs>
</svg>
